<?xml version="1.0" encoding="UTF-8"?><svg xmlns="http://www.w3.org/2000/svg" viewBox="0 0 653.97 660.51" fill="#333" stroke-width="0"><g><path d="m648.75,366.88l-153.08-88.34V101.81c0-3.73-1.98-7.18-5.22-9.05L332.2,1.39c-3.24-1.86-7.2-1.86-10.44,0l-158.27,91.37c-3.23,1.87-5.22,5.31-5.22,9.05v176.73L5.22,366.88c-3.24,1.87-5.22,5.31-5.22,9.04v182.78c0,3.73,1.98,7.18,5.22,9.04l158.27,91.36c1.62.93,3.42,1.4,5.22,1.4s3.6-.47,5.22-1.4l153.05-88.35,153.04,88.35c1.62.93,3.41,1.4,5.22,1.4s3.6-.47,5.22-1.4l158.29-91.36c3.24-1.86,5.22-5.31,5.22-9.04v-182.78c0-3.73-1.98-7.18-5.22-9.04Zm-332.21,173.74l-126.95-73.3,126.95-73.3v146.61Zm147.81-256.05l-126.93,73.27v-146.57l126.93,73.31Zm-147.81,73.27l-126.94-73.27,126.94-73.3v146.58Zm31.33,18.09l137.37-79.3,137.41,79.29-137.41,79.34-137.37-79.33Zm126.93-109.45l-126.93-73.3,126.93-73.29v146.59Zm-168.7-73.3l-126.94,73.3V119.9l126.94,73.29Zm-147.82,438.8l-137.39-79.3v-158.66l137.39,79.34v158.63Zm20.88,0v-146.58l126.94,73.3-126.94,73.27Zm453.94-79.3l-137.41,79.3v-158.63l137.41-79.34v158.66Z"/></g></svg>
