<?xml version="1.0" encoding="UTF-8"?><svg xmlns="http://www.w3.org/2000/svg" viewBox="0 0 804.2 407.22" fill="#333" stroke-width="0"><g><path d="m734.9,42.24C678.03-2.68,602.69-3.6,575.1,2.96l-3.2.74c-31.87,7.53-82.49,19.98-141.74,93.51-.33.41-.67.83-.98,1.25l-.75.91c-.58.82-.98,1.78-.98,2.86,0,.89.22,1.7.64,2.46l1.38,2.27c7.44,12.44,16.82,28.45,24.74,43.21.08.16.16.27.22.45.84,1.63,2.53,2.78,4.52,2.78,1.38,0,2.61-.55,3.5-1.42.37-.49.75-.99,1.08-1.51,52.59-72.73,93.94-82.77,121.92-89.35l3.34-.79c14.52-3.49,69.72-3.28,109.57,28.19,31.1,24.55,46.89,63.62,46.89,116.11,0,88.05-42.82,122.5-78.77,135.88-55.67,20.81-109.06-7.01-109.45-7.22l-2.39-1.16c-30.58-13.28-76.22-40.9-119.23-127.29C348.71,30.73,276.19,14.33,228.21,3.46l-2.57-.57c-21.85-4.95-97.72-8.46-157.36,39.15C37.12,66.9,0,115.23,0,204.27c0,54.25,11.14,90.08,39.79,127.76,6.28,8.59,70.48,91.07,194.61,67.28,19.86-3.8,46.78-13.29,76.38-35.48l27.32,24.65c1.78,1.62,4.63,1.48,6.27-.31.78-.84,1.11-1.91,1.09-2.96v-.37l19.71-121.23.02-1.34c-.02-1.18-.5-2.38-1.47-3.23-.83-.79-1.86-1.09-2.89-1.09l-.84.08-1.28.13-116.12,32.51-2.11.34c-.84.18-1.63.62-2.22,1.3-1.69,1.84-1.53,4.66.33,6.3l1.36,1.26,26.02,23.5c-16.8,10.88-31.44,15.87-42.62,18.03-89.8,17.13-134.14-41.69-135.83-43.99l-.62-.86c-20.87-27.4-27.91-50.68-27.91-92.27,0-52.65,15.5-91.73,46.09-116.16,38.84-30.99,92.4-31.17,107.52-27.73l2.61.59c39.32,8.9,93.19,21.08,167.4,170.14,38.54,77.39,86.82,127.98,147.57,154.67,7.74,3.95,44.62,21.43,92.49,21.43,20.02,0,41.95-3.06,64.44-11.42,35.21-13.14,117.12-58.04,117.12-191.18,0-88.99-37.68-137.42-69.3-162.39"/></g></svg>
