<?xml version="1.0" encoding="UTF-8"?><svg xmlns="http://www.w3.org/2000/svg" viewBox="0 0 576.99 384.03" fill="#fff" stroke-width="0"><g><path d="m138.53,384.03c-32.18,0-58.36-26.18-58.36-58.36s26.18-58.36,58.36-58.36,58.36,26.18,58.36,58.36-26.18,58.36-58.36,58.36Zm0-109.72c-28.32,0-51.36,23.04-51.36,51.36s23.04,51.36,51.36,51.36,51.36-23.04,51.36-51.36-23.04-51.36-51.36-51.36Zm0,76.19c-13.69,0-24.83-11.14-24.83-24.83s11.14-24.83,24.83-24.83,24.83,11.14,24.83,24.83-11.14,24.83-24.83,24.83Zm0-42.66c-9.83,0-17.83,8-17.83,17.83s8,17.83,17.83,17.83,17.83-8,17.83-17.83-8-17.83-17.83-17.83Z"/><path d="m431.29,384.03c-32.18,0-58.36-26.18-58.36-58.36s26.18-58.36,58.36-58.36,58.36,26.18,58.36,58.36-26.18,58.36-58.36,58.36Zm0-109.72c-28.32,0-51.36,23.04-51.36,51.36s23.04,51.36,51.36,51.36,51.36-23.04,51.36-51.36-23.04-51.36-51.36-51.36Zm0,76.19c-13.69,0-24.83-11.14-24.83-24.83s11.14-24.83,24.83-24.83,24.83,11.14,24.83,24.83-11.14,24.83-24.83,24.83Zm0-42.66c-9.83,0-17.83,8-17.83,17.83s8,17.83,17.83,17.83,17.83-8,17.83-17.83-8-17.83-17.83-17.83Z"/><path d="m556.13,333.66h-59.53l.22-3.71c.08-1.26.15-2.76.15-4.28,0-36.23-29.47-65.7-65.7-65.7s-65.7,29.47-65.7,65.7c0,1.52.08,3.02.15,4.28l.22,3.71h-162.13l.25-3.73c.1-1.53.15-2.92.15-4.26,0-36.23-29.47-65.7-65.7-65.7s-65.7,29.47-65.7,65.7c0,1.34.05,2.73.15,4.26l.25,3.73h-40.8c-22.4,0-32.43-13.38-32.43-26.64v-96.83c0-4.63,1.22-9.21,3.52-13.24L92.12,42.15c4.74-8.27,13.6-13.41,23.13-13.41h108.79c14.69,0,26.65,11.95,26.65,26.64v137.15h291.21,0s8.45,0,8.45,0c14.7,0,26.65,11.96,26.65,26.65v87.85c0,14.35-11.47,26.64-20.86,26.64Zm-52.16-7h52.16c4.62,0,13.86-8.49,13.86-19.64v-87.85c0-10.63-8.49-19.32-19.05-19.64h-.59s-306.66,0-306.66,0V55.38c0-10.83-8.81-19.64-19.65-19.64h-108.79c-7.02,0-13.56,3.79-17.05,9.89L9.6,200.43c-1.7,2.97-2.6,6.35-2.6,9.76v96.83c0,11.93,9.98,19.64,25.43,19.64h33.41c0-.33,0-.66,0-.99,0-40.09,32.61-72.7,72.7-72.7s72.7,32.61,72.7,72.7c0,.33,0,.66,0,.99h147.37c0-.33,0-.66,0-.99,0-40.09,32.61-72.7,72.7-72.7s72.7,32.61,72.7,72.7c0,.33,0,.66,0,.99ZM138.8,195.31H60.84c-2.44,0-4.48-1.05-5.58-2.87-1.1-1.82-1.08-4.1.06-6.26l61.28-117.1c1.75-3.35,5.93-5.88,9.72-5.88h78.25c4.42,0,8.02,3.6,8.02,8.02v106.87l-2.5-2.38c-1.44,1.38-3.39,2.22-5.53,2.22h-47.9c-1.18,0-2.92,1.07-3.45,2.12l-4.73,9.32c-1.71,3.39-5.88,5.95-9.69,5.95Zm-76.69-7h76.69c1.18,0,2.92-1.06,3.45-2.11l4.73-9.33c1.73-3.39,5.89-5.95,9.69-5.95h47.9c.55,0,1.02-.47,1.02-1.02v-8.17h.01s0-90.52,0-90.52c0-.55-.47-1.02-1.02-1.02h-78.25c-1.19,0-2.97,1.07-3.52,2.12l-60.7,115.99Z"/><path d="m576.89,180.38h-314.13V11.41c0-6.29,5.12-11.41,11.41-11.41h272.1c16.88,0,30.62,13.74,30.62,30.62v149.76Zm-307.13-7h300.13V30.62c0-13.02-10.6-23.62-23.62-23.62h-272.1c-2.43,0-4.41,1.98-4.41,4.41v161.97Z"/></g></svg>
