<?xml version="1.0" encoding="utf-8"?>
<svg version="1.1" xmlns="http://www.w3.org/2000/svg" xmlns:xlink="http://www.w3.org/1999/xlink" x="0px"
	 y="0px" viewBox="0 0 509.3 573.5" style="enable-background:new 0 0 509.3 573.5;" xml:space="preserve" fill="#fff">
<path d="M286,573.9H22.3c-11.9,0-21.5-9.6-21.5-21.5V21.9C0.8,10,10.4,0.4,22.3,0.4h263.8c11.9,0,21.5,9.6,21.5,21.5
	v191.4c0,1.3-0.7,2.5-1.8,3.1c0,0-0.1,0.1-0.1,0.1c-2.1,1.8-3.9,3.6-5.3,5.5c-1,1.3-2.8,1.7-4.3,1c-3.6-1.8-7.7-3.1-11.8-3.8
	c-1.7-0.3-3-1.7-3-3.5V81.6H27v401h254.3v-12.8c0-1.1,0.5-2.2,1.5-2.8c0.9-0.7,2.1-0.8,3.2-0.5l19.2,6.4c1.4,0.5,2.4,1.8,2.4,3.3
	v76.2C307.5,564.3,297.9,573.9,286,573.9z M22.3,7.4c-8,0-14.5,6.5-14.5,14.5v530.5c0,8,6.5,14.5,14.5,14.5H286
	c8,0,14.5-6.5,14.5-14.5v-73.7l-12.2-4.1v11.4c0,1.9-1.6,3.5-3.5,3.5H23.5c-1.9,0-3.5-1.6-3.5-3.5v-408c0-1.9,1.6-3.5,3.5-3.5h261.3
	c1.9,0,3.5,1.6,3.5,3.5v134.7c2.8,0.6,5.7,1.5,8.3,2.7c1.2-1.3,2.5-2.6,4-3.9V21.9c0-8-6.5-14.5-14.5-14.5H22.3z M305.2,216.6
	C305.2,216.6,305.2,216.6,305.2,216.6C305.2,216.6,305.2,216.6,305.2,216.6z M154.2,555.8c-16.2,0-29.4-13.2-29.4-29.4
	c0-16.2,13.2-29.4,29.4-29.4c16.2,0,29.4,13.2,29.4,29.4C183.6,542.6,170.4,555.8,154.2,555.8z M154.2,504
	c-12.4,0-22.4,10-22.4,22.4s10,22.4,22.4,22.4s22.4-10,22.4-22.4S166.6,504,154.2,504z M184.4,56.8h-60.5c-4.3,0-7.6-3.3-7.6-7.6
	c0-4.2,3.4-7.6,7.6-7.6h60.5c4.3,0,7.6,3.3,7.6,7.6C192,53.5,188.7,56.8,184.4,56.8z M123.9,48.6c-0.4,0-0.6,0.3-0.6,0.6
	c0,0.4,0.2,0.6,0.6,0.6h60.5c0.4,0,0.6-0.2,0.6-0.6c0-0.4-0.2-0.6-0.6-0.6H123.9z"/>
<path d="M407.4,497.2c-1,0-1.9-0.1-2.9-0.4c0,0-0.1,0-0.1,0L203,430c-2.2-0.8-4.1-2.3-5.3-4.3
	c-5.9-10.1-4.5-21,3.4-27.6c4.1-3.6,9.9-6.2,17.6-8c24-5.7,48-4.6,62.1-3L149,231.8c-5.5-6.5-8.1-14.7-7.4-23.1
	c0.7-8.4,4.7-16.1,11.1-21.6c6.5-5.5,14.8-8.2,23.3-7.5c8.4,0.7,16,4.6,21.4,11.1l64.2,75.6c0.5,0.4,0.9,0.8,1.2,1.3l48.9,57.6
	c0.1,0.1,0.3,0.2,0.4,0c0.1-0.1,0.2-0.3,0.1-0.5l-60.5-71.1c-2.8-3.3-3.1-7.8-0.8-11.5c1.6-2.6,3.7-5,6.2-7.1
	c6.5-5.5,14.8-8.2,23.3-7.5c8.4,0.7,16,4.6,21.4,11.1l46.9,55.1c0.1,0.1,0.3,0.2,0.4,0c0.1-0.1,0.2-0.3,0.1-0.5l-43.6-51.3
	c-2.8-3.3-3.1-7.9-0.8-11.5c1.6-2.6,3.8-5.1,6.2-7.2c6.6-5.6,14.9-8.2,23.5-7.5c8.4,0.7,16,4.6,21.4,11l30,35.2
	c0.1,0.1,0.3,0.2,0.4,0c0.1-0.1,0.1-0.2,0.1-0.3c0-0.1,0-0.2-0.1-0.2l-24.6-29c-3-3.5-3.1-8.6-0.3-12.2c1.4-1.8,3-3.5,4.7-5
	c6.5-5.5,14.7-8.1,23.2-7.4c8.4,0.7,16,4.6,21.4,11.1l95.9,112.9c1.3,1.4,2,3.2,2.2,5.1c1,7.8,1.1,42.2,0.7,72.2
	c0,2.8-1.3,5.5-3.5,7.3l-92.5,78.6C412.1,496.4,409.8,497.2,407.4,497.2z M406.5,490.1c1,0.3,2,0.1,2.7-0.5c0,0,0,0,0,0l92.6-78.7
	c0,0,0.1-0.1,0.1-0.1c0.5-0.4,0.9-1.1,0.9-1.8c0.4-29.2,0.3-64.1-0.7-71.3c0-0.1,0-0.1,0-0.2c0-0.4-0.2-0.8-0.5-1.2l-96-113
	c-4.2-5-10.1-8.1-16.7-8.6c-6.6-0.6-13.1,1.5-18.2,5.8c-1.4,1.1-2.6,2.4-3.7,3.8c-0.8,1-0.8,2.5,0,3.4l24.6,29
	c1.3,1.4,1.9,3.3,1.7,5.3c-0.1,1.9-1,3.7-2.5,5c-3,2.6-7.7,2.3-10.3-0.7l-30-35.2c-4.2-5-10.1-8-16.6-8.6
	c-6.7-0.6-13.2,1.5-18.3,5.9c-1.9,1.7-3.6,3.6-4.9,5.7c-0.7,1.1-0.6,2.2,0.2,3.2l43.6,51.3c2.6,3,2.3,7.6-0.8,10.3
	c-3,2.7-7.7,2.3-10.3-0.7L296.5,243c-4.2-5-10.1-8.1-16.7-8.6c-6.6-0.6-13.1,1.5-18.2,5.8c-2,1.7-3.6,3.5-4.8,5.5
	c-0.7,1.1-0.6,2.3,0.2,3.3l60.5,71.1c2.6,3,2.3,7.6-0.8,10.3c-3,2.7-7.7,2.3-10.3-0.7l-49-57.7c-0.1-0.1-0.1-0.1-0.2-0.2
	c-0.2-0.1-0.3-0.2-0.4-0.4l-0.1-0.1c-0.1-0.1-0.1-0.1-0.2-0.2l-64.4-75.8c-4.2-5-10.1-8.1-16.7-8.6c-6.6-0.6-13.1,1.5-18.2,5.8
	c-5,4.3-8.1,10.3-8.7,16.8c-0.5,6.6,1.5,13,5.8,18l137.7,162.2c0.9,1.1,1.1,2.7,0.4,3.9c-0.7,1.3-2.1,2-3.5,1.8l-5.2-0.7
	c-12.8-1.7-38.1-3.6-63.3,2.4c-6.6,1.6-11.4,3.7-14.7,6.5c-5.4,4.5-6.1,11.5-2,18.7c0.3,0.6,0.9,1,1.6,1.3L406.5,490.1z
	 M257.4,271.7C257.4,271.7,257.4,271.7,257.4,271.7C257.4,271.7,257.4,271.7,257.4,271.7z M257.2,271.5
	C257.2,271.5,257.2,271.5,257.2,271.5C257.2,271.5,257.2,271.5,257.2,271.5z"/>
</svg>
