<?xml version="1.0" encoding="UTF-8"?><svg xmlns="http://www.w3.org/2000/svg" viewBox="0 0 552.52 480.15" fill="#fff" stroke-width="0"><g><polygon points="348.14 430.97 348.14 407.75 321.96 407.75 321.96 389.22 348.14 389.22 348.14 380.65 321.96 380.65 321.96 362.13 343.79 362.13 320.22 324.68 347.01 324.68 360.63 346.32 374.25 324.68 401.04 324.68 377.47 362.13 399.29 362.13 399.29 380.65 373.12 380.65 373.12 389.22 399.29 389.22 399.29 407.75 373.12 407.75 373.12 430.97 348.14 430.97"/><path d="m347.72,243.22H3.5c-1.93,0-3.5-1.57-3.5-3.5s1.57-3.5,3.5-3.5h340.72v-60.99c0-1.93,1.57-3.5,3.5-3.5s3.5,1.57,3.5,3.5v64.49c0,1.93-1.57,3.5-3.5,3.5Z"/><path d="m245.52,309.25H19.6c-18.19,0-19.6-7.45-19.6-17.97V80.99c0-15.14,7.86-15.14,22.12-15.14h130.32L311.97.26c.42-.17.88-.26,1.33-.26h68.35c.69,0,1.37.21,1.94.59l65.95,44.04,88.16,7.43c1.81.15,3.21,1.67,3.21,3.49v124.05c0,1.86-1.46,3.4-3.32,3.5l-126.42,6.44c-.25.01-.51,0-.77-.05l-62.99-10.76h-83.29s-.09,0-.14,0c-11.67-.46-21.43-4.92-28.23-12.92-6.01-7.07-9.21-16.37-9.02-26.19.34-17.6,12.19-36.53,37.38-36.53h79.56l-17.68-30.23h-172.79c-.06,0-.11,0-.16,0H22.12c-6.41,0-11.04,0-13.14,1.07-.74.38-1.98,1.01-1.98,7.06v210.29c0,8.42,0,10.97,12.6,10.97h225.92c1.93,0,3.5,1.57,3.5,3.5s-1.57,3.5-3.5,3.5Zm18.68-137.51h83.52c.2,0,.39.02.59.05l62.9,10.74,122.71-6.25V58.77l-85.85-7.23c-.59-.05-1.16-.25-1.65-.58L380.59,7h-66.6l-143.15,58.85h157.17c1.24,0,2.39.66,3.02,1.73l21.78,37.23c.63,1.08.64,2.42.01,3.51-.62,1.09-1.78,1.76-3.04,1.76h-85.66c-20.48,0-30.11,15.38-30.39,29.67-.29,14.8,9.12,31.11,30.45,31.98Z"/><path d="m363.3,480.15c-56.42,0-102.32-45.9-102.32-102.32s45.9-102.32,102.32-102.32c7.48,0,14.97.82,22.25,2.43,2.15.48,3.51,2.61,3.03,4.75-.48,2.15-2.61,3.5-4.75,3.03-6.72-1.49-13.62-2.25-20.52-2.25-52.03,0-94.35,42.33-94.35,94.35s42.33,94.35,94.35,94.35c6.91,0,13.81-.75,20.52-2.24,2.15-.48,4.28.88,4.75,3.03.48,2.15-.88,4.28-3.03,4.75-7.28,1.62-14.77,2.43-22.25,2.43Z"/><path d="m406.75,293.58c-.59,0-1.19-.13-1.76-.41-6.73-3.32-13.85-5.83-21.17-7.45-1.82-.4-3.12-2.02-3.12-3.89s1.3-3.49,3.12-3.89c14.68-3.26,30.2-3.22,44.8.06,2.15.48,3.5,2.62,3.01,4.76-.48,2.15-2.62,3.5-4.76,3.01-7.76-1.75-15.81-2.5-23.82-2.25,1.84.78,3.66,1.61,5.46,2.5,1.97.97,2.79,3.36,1.81,5.34-.69,1.41-2.11,2.22-3.58,2.22Z"/><path d="m406.07,480.15c-7.48,0-14.97-.82-22.25-2.43-1.82-.4-3.12-2.02-3.12-3.89s1.3-3.49,3.12-3.89c7.32-1.62,14.44-4.13,21.17-7.45,1.97-.97,4.36-.16,5.34,1.81.97,1.97.16,4.36-1.81,5.34-1.79.88-3.61,1.72-5.46,2.49,8.14.25,16.31-.53,24.19-2.34,2.14-.49,4.28.85,4.78,3,.49,2.15-.85,4.28-3,4.78-7.49,1.72-15.21,2.59-22.96,2.59Z"/><path d="m450.2,480.15c-7.74,0-15.47-.87-22.96-2.59-1.81-.42-3.1-2.03-3.1-3.89s1.28-3.47,3.1-3.89c20.47-4.69,39.04-16.33,52.31-32.78,13.46-16.69,20.87-37.71,20.87-59.19s-7.41-42.5-20.87-59.19c-13.26-16.44-31.84-28.08-52.31-32.78-1.81-.42-3.1-2.03-3.1-3.89s1.28-3.47,3.1-3.89c7.49-1.72,15.21-2.59,22.96-2.59,56.42,0,102.32,45.9,102.32,102.32s-45.9,102.32-102.32,102.32Zm-4.28-8.07c1.42.06,2.85.1,4.28.1,52.03,0,94.35-42.33,94.35-94.35s-42.33-94.35-94.35-94.35c-1.43,0-2.86.03-4.28.1,15.43,6.55,29.21,16.88,39.84,30.06,14.6,18.1,22.64,40.9,22.64,64.19s-8.04,46.1-22.64,64.19c-10.63,13.18-24.41,23.51-39.84,30.06Z"/><path d="m406.75,470.04c-1.47,0-2.88-.82-3.58-2.22-.97-1.97-.16-4.36,1.81-5.34,32.48-16.03,52.66-48.47,52.66-84.66s-20.18-68.63-52.66-84.66c-1.97-.97-2.79-3.37-1.81-5.34.98-1.97,3.37-2.78,5.34-1.81,16.88,8.33,31.14,21.14,41.24,37.06,10.38,16.36,15.87,35.29,15.87,54.75s-5.49,38.4-15.87,54.75c-10.1,15.92-24.36,28.73-41.24,37.06-.57.28-1.17.41-1.76.41Z"/></g></svg>
