<?xml version="1.0" encoding="UTF-8"?><svg xmlns="http://www.w3.org/2000/svg" viewBox="0 0 874.29 653.33" fill="#333" stroke-width="0"><g><path d="m5.72,472.41h193.69c2.62,0,4.75-2.14,4.75-4.77,0-1.22-.49-2.31-1.25-3.16l-.27-.28-96.37-124.68-.94-1.03c-.87-.95-2.12-1.55-3.51-1.55-1.2,0-2.27.5-3.12,1.22l-.58.67-.91,1.02L3.22,463.22l-1.45,1.77c-.52.75-.81,1.67-.81,2.66,0,2.63,2.13,4.77,4.76,4.77Z"/><path d="m198.83,489.99H4.75c-2.63,0-4.75,2.13-4.75,4.75v151.88c0,2.63,2.12,4.77,4.75,4.77h62.47v-95.55c0-2.64,2.12-4.75,4.75-4.75h57.98c2.63,0,4.75,2.11,4.75,4.75v95.55h64.12c2.62,0,4.75-2.14,4.75-4.77v-151.88c0-2.63-2.13-4.75-4.75-4.75Z"/><path d="m869.58,450.24h-192.09c-2.59,0-4.69,2.02-4.69,4.56v193.97c0,2.52,2.09,4.56,4.69,4.56h192.09c2.61,0,4.7-2.05,4.7-4.56v-193.97c0-2.55-2.09-4.56-4.7-4.56m-105.1,126.62c0,2.55-2.09,4.59-4.69,4.59h-57.39c-2.61,0-4.72-2.05-4.72-4.59v-34.87c0-2.55,2.11-4.58,4.72-4.58h57.39c2.6,0,4.69,2.03,4.69,4.58v34.87Zm0-64.45c0,2.53-2.09,4.58-4.69,4.58h-57.39c-2.61,0-4.72-2.05-4.72-4.58v-34.9c0-2.52,2.11-4.56,4.72-4.56h57.39c2.6,0,4.69,2.05,4.69,4.56v34.9Zm87.71,64.45c0,2.55-2.09,4.59-4.7,4.59h-57.37c-2.61,0-4.7-2.05-4.7-4.59v-34.87c0-2.55,2.09-4.58,4.7-4.58h57.37c2.61,0,4.7,2.03,4.7,4.58v34.87Zm0-64.45c0,2.53-2.09,4.58-4.7,4.58h-57.37c-2.61,0-4.7-2.05-4.7-4.58v-34.9c0-2.52,2.09-4.56,4.7-4.56h57.37c2.61,0,4.7,2.05,4.7,4.56v34.9Z"/><path d="m423.06,0h-187.98c-2.52,0-4.59,2.05-4.59,4.61v642.44c0,2.53,2.08,4.59,4.59,4.59h187.98c2.52,0,4.63-2.06,4.63-4.59V4.61c0-2.56-2.11-4.61-4.63-4.61m-111.82,578.45c0,1.36-1.11,2.47-2.47,2.47h-43.04c-1.36,0-2.47-1.11-2.47-2.47v-47.96c0-1.36,1.11-2.45,2.47-2.45h43.04c1.36,0,2.47,1.09,2.47,2.45v47.96Zm0-110.16c0,1.39-1.11,2.47-2.47,2.47h-43.04c-1.36,0-2.47-1.08-2.47-2.47v-47.95c0-1.39,1.11-2.47,2.47-2.47h43.04c1.36,0,2.47,1.08,2.47,2.47v47.95Zm0-110.13c0,1.36-1.11,2.47-2.47,2.47h-43.04c-1.36,0-2.47-1.11-2.47-2.47v-47.98c0-1.36,1.11-2.47,2.47-2.47h43.04c1.36,0,2.47,1.11,2.47,2.47v47.98Zm0-110.17c0,1.36-1.11,2.47-2.47,2.47h-43.04c-1.36,0-2.47-1.11-2.47-2.47v-47.98c0-1.36,1.11-2.44,2.47-2.44h43.04c1.36,0,2.47,1.08,2.47,2.44v47.98Zm0-110.13c0,1.34-1.11,2.45-2.47,2.45h-43.04c-1.36,0-2.47-1.11-2.47-2.45v-47.98c0-1.37,1.11-2.47,2.47-2.47h43.04c1.36,0,2.47,1.1,2.47,2.47v47.98Zm84.41,440.6c0,1.36-1.11,2.47-2.48,2.47h-43.03c-1.38,0-2.47-1.11-2.47-2.47v-47.96c0-1.36,1.09-2.45,2.47-2.45h43.03c1.38,0,2.48,1.09,2.48,2.45v47.96Zm0-110.16c0,1.39-1.11,2.47-2.48,2.47h-43.03c-1.38,0-2.47-1.08-2.47-2.47v-47.95c0-1.39,1.09-2.47,2.47-2.47h43.03c1.38,0,2.48,1.08,2.48,2.47v47.95Zm0-110.13c0,1.36-1.11,2.47-2.48,2.47h-43.03c-1.38,0-2.47-1.11-2.47-2.47v-47.98c0-1.36,1.09-2.47,2.47-2.47h43.03c1.38,0,2.48,1.11,2.48,2.47v47.98Zm0-110.17c0,1.36-1.11,2.47-2.48,2.47h-43.03c-1.38,0-2.47-1.11-2.47-2.47v-47.98c0-1.36,1.09-2.44,2.47-2.44h43.03c1.38,0,2.48,1.08,2.48,2.44v47.98Zm0-110.13c0,1.34-1.11,2.45-2.48,2.45h-43.03c-1.38,0-2.47-1.11-2.47-2.45v-47.98c0-1.37,1.09-2.47,2.47-2.47h43.03c1.38,0,2.48,1.1,2.48,2.47v47.98Z"/><path d="m874.07,430.72c0,2.16-1.72,3.88-3.86,3.88h-193.34c-2.13,0-3.86-1.72-3.86-3.88v-38.67c0-2.12,1.73-3.86,3.86-3.86h193.34c2.14,0,3.86,1.73,3.86,3.86v38.67Z"/><path d="m650.12,121.32c-.62-2.06-2.45-3.59-4.72-3.59-1.02,0-1.9.38-2.69.89-.12.08-.24.14-.35.23l-1.59,2-184.75,234.37-.85,1.14c-.95.94-1.56,2.22-1.6,3.66v288c0,2.53,2.06,4.58,4.61,4.58h187.79c2.55,0,4.6-2.05,4.6-4.58V123.24c0-.69-.18-1.35-.45-1.92Zm-77.78,127.28l1.32-1.66c12.64-16.22,33.95-42.45,44.33-55.18l1.36-1.63c.98-1.19,2.47-1.95,4.13-1.95,2.57,0,4.63,1.86,5.13,4.3v59.3c0,2.86-2.27,5.16-5.1,5.28-.09,0-.16.05-.23.05s-.15-.05-.23-.05h-46.17c-.09,0-.16.05-.23.05s-.15-.05-.23-.05c-2.83-.12-5.1-2.42-5.1-5.28,0-1.19.38-2.28,1.04-3.17Zm-29.23,328.23c0,2.55-2.05,4.59-4.6,4.59h-56.03c-2.55,0-4.59-2.05-4.59-4.59v-35.07c0-2.53,2.05-4.58,4.59-4.58h56.03c2.55,0,4.6,2.05,4.6,4.58v35.07Zm0-64.8c0,2.55-2.05,4.6-4.6,4.6h-56.03c-2.55,0-4.59-2.05-4.59-4.6v-35.07c0-2.56,2.05-4.6,4.59-4.6h56.03c2.55,0,4.6,2.03,4.6,4.6v35.07Zm0-64.8c0,2.52-2.05,4.58-4.6,4.58h-56.03c-2.55,0-4.59-2.06-4.59-4.58v-35.09c0-2.55,2.05-4.6,4.59-4.6h56.03c2.55,0,4.6,2.05,4.6,4.6v35.09Zm.16-142v77.25c0,2.55-2.08,4.59-4.59,4.59h-56.01c-2.56,0-4.63-2.05-4.63-4.59v-9.72c.02-.61.14-1.19.35-1.72.09-.19.11-.27.28-.53.11-.22.27-.42.41-.61.14-.22.35-.5.52-.75,7.16-10.25,39.48-50.06,53.05-66.7l1.36-1.64c.98-1.19,2.47-1.95,4.13-1.95,2.57,0,4.63,1.87,5.13,4.3v2.08Zm85.49,271.59c0,2.55-2.08,4.59-4.59,4.59h-56.01c-2.56,0-4.63-2.05-4.63-4.59v-35.07c0-2.53,2.06-4.58,4.63-4.58h56.01c2.52,0,4.59,2.05,4.59,4.58v35.07Zm0-64.8c0,2.55-2.08,4.6-4.59,4.6h-56.01c-2.56,0-4.63-2.05-4.63-4.6v-35.07c0-2.56,2.06-4.6,4.63-4.6h56.01c2.52,0,4.59,2.03,4.59,4.6v35.07Zm0-64.8c0,2.52-2.08,4.58-4.59,4.58h-56.01c-2.56,0-4.63-2.06-4.63-4.58v-35.09c0-2.55,2.06-4.6,4.63-4.6h56.01c2.52,0,4.59,2.05,4.59,4.6v35.09Zm0-64.81c0,2.53-2.08,4.58-4.59,4.58h-56.01c-2.56,0-4.63-2.05-4.63-4.58v-35.07c0-2.55,2.06-4.6,4.63-4.6h56.01c2.52,0,4.59,2.05,4.59,4.6v35.07Zm0-64.81c0,2.55-2.08,4.6-4.59,4.6h-56.01c-2.56,0-4.63-2.05-4.63-4.6v-35.07c0-2.56,2.06-4.61,4.63-4.61h56.01c2.52,0,4.59,2.05,4.59,4.61v35.07Z"/></g></svg>
