<?xml version="1.0" encoding="UTF-8"?><svg xmlns="http://www.w3.org/2000/svg" viewBox="0 0 445.92 543.52" fill="#fff" stroke-width="0"><g><path d="m210.58,490.06c-1.93,0-3.5-1.57-3.5-3.5v-154.26c0-1.93,1.57-3.5,3.5-3.5s3.5,1.57,3.5,3.5v154.26c0,1.93-1.57,3.5-3.5,3.5Z"/><path d="m210.58,284.15c-1.93,0-3.5-1.57-3.5-3.5v-62.86c0-1.93,1.57-3.5,3.5-3.5s3.5,1.57,3.5,3.5v62.86c0,1.93-1.57,3.5-3.5,3.5Z"/><path d="m192.1,144.41c-1.15,0-2.27-.56-2.94-1.6-15.42-23.88-17.67-32.39-16.3-37.83,1.04-4.13,4.22-5.88,6.77-7.29l.65-.36c12.55-6.62,56.96-10.83,86.06-3.41,1.87.48,3,2.38,2.53,4.26-.48,1.87-2.39,3-4.26,2.53-28.98-7.39-71-2.5-80.98,2.77l-.62.34c-2.22,1.22-3.08,1.79-3.36,2.87-1.02,4.04,4.16,14.92,15.39,32.32,1.05,1.62.58,3.79-1.04,4.84-.59.38-1.24.56-1.9.56Z"/><path d="m143.9,254.77c-.58,0-1.16-.14-1.68-.43-1.01-.55-1.68-1.56-1.8-2.71l-4.94-47.02c-.2-1.92,1.19-3.64,3.12-3.85,1.91-.19,3.64,1.19,3.85,3.12l4.41,41.99,83.01-41.67-25.14-38.87c-.38-.59-.56-1.25-.56-1.9,0-1.15.56-2.27,1.6-2.94,1.62-1.05,3.79-.59,4.84,1.04l24.27,37.52,27.64-44.27c8.28-13.79,20.77-34.57,21.8-38.65-.14-1.51.73-2.99,2.21-3.57,1.8-.71,3.83.18,4.54,1.98,1.24,3.15-.57,7.28-22.58,43.9l-28.58,45.79,50.83,26.55c1.2.62,1.88,1.84,1.88,3.11,0,.55-.13,1.1-.4,1.62-.9,1.71-3.01,2.38-4.72,1.48l-52.59-27.47-89.42,44.89c-.49.25-1.03.37-1.57.37Zm140.63-137.68s0,0,0,0c0,0,0,0,0,0Zm-.18-1.17h0s0,0,0,0Z"/><path d="m396.91,173.09c-1.93,0-3.5-1.57-3.5-3.5v-26.32c0-4.2-2.53-6.54-7.51-6.97h-49.4c-1.93,0-3.5-1.57-3.5-3.5s1.57-3.5,3.5-3.5h49.54c.09,0,.18,0,.27.01,8.69.68,14.09,6.03,14.09,13.96v26.32c0,1.93-1.57,3.5-3.5,3.5Z"/><path d="m328.58,213.83c-.12,0-.24,0-.36-.02-1.92-.2-3.32-1.92-3.12-3.84l7.93-77.52c1.15-11.33.42-28.06-5.05-41.06-.75-1.78.08-3.83,1.87-4.58,1.78-.75,3.83.08,4.58,1.87,5.99,14.21,6.8,32.3,5.57,44.49l-7.94,77.52c-.18,1.8-1.7,3.14-3.48,3.14Z"/><path d="m71.18,335.8c-1.93,0-3.5-1.57-3.5-3.5v-87.77c0-1.93,1.57-3.5,3.5-3.5s3.5,1.57,3.5,3.5v87.77c0,1.93-1.57,3.5-3.5,3.5Z"/><path d="m48.57,380.71c-1.93,0-3.5-1.57-3.5-3.5v-36.93c0-3.27.46-7.32,4.04-9.58,2.51-1.58,5.94-1.9,11.02-1.9h45.36c9.43,0,14.07,1.08,16.54,3.84,1.29,1.44,1.16,3.65-.28,4.94-1.44,1.29-3.65,1.16-4.94-.28-.22-.25-1.83-1.51-11.32-1.51h-45.32c-1.81,0-6.02,0-7.32.82-.52.33-.78,1.56-.78,3.67v36.93c0,1.93-1.57,3.5-3.5,3.5Z"/><path d="m327.8,427.15h-43.78c-12.95,0-23.49-12.11-23.49-27v-55.63c0-1.93,1.57-3.5,3.5-3.5h85.26c1.93,0,3.5,1.57,3.5,3.5v55.61c.09,7.43-2.85,14.89-7.85,19.96-4.56,4.62-10.49,7.06-17.14,7.06Zm-60.28-79.13v52.13c0,11.03,7.4,20,16.49,20h43.78c4.74,0,8.94-1.72,12.16-4.98,3.72-3.77,5.9-9.37,5.83-14.98v-52.17h-78.26Z"/><path d="m120.68,445.96H48.57c-1.93,0-3.5-1.57-3.5-3.5v-14.22c0-1.93,1.57-3.5,3.5-3.5s3.5,1.57,3.5,3.5v10.72h68.61c3.06,0,6.24-1.39,8.52-3.71,1.46-1.49,3.17-4,3.1-7.55v-51.43c0-1.93,1.57-3.5,3.5-3.5s3.5,1.57,3.5,3.5v51.36c.1,4.59-1.71,9.06-5.1,12.52-3.56,3.64-8.62,5.81-13.52,5.81Z"/><path d="m71.18,216.25c-1.93,0-3.5-1.57-3.5-3.5v-69.89c0-7.48,6.86-13.56,15.3-13.56h44.7l-.48-4.33c-.02-.14-.02-.28-.02-.41-2.03-15.68,2.51-31.25,12.9-44.04,12.47-15.36,31.86-25.05,51.87-25.94.05,0,.1,0,.15,0,10.37,0,20.04-.08,28.56-.16,46.33-.4,71.84-.61,91.93,13.19,1.59,1.1,2,3.27.9,4.87-1.1,1.59-3.27,2-4.87.9-18.26-12.56-41.53-12.36-87.9-11.96-8.52.07-18.18.16-28.55.16-18.02.82-35.46,9.55-46.67,23.36-9.53,11.74-13.49,26.09-11.14,40.41.05.32.06.64.02.96l5.31,47.41c.22,1.92-1.17,3.65-3.09,3.87-1.92.21-3.65-1.17-3.87-3.09l-4.28-38.2h-45.48c-4.58,0-8.3,2.94-8.3,6.56v69.89c0,1.93-1.57,3.5-3.5,3.5Z"/><path d="m414.47,543.52H41.81c-30.83,0-41.81-18.3-41.81-35.42V40.07c0-13.13,2.31-22.25,7.26-28.71C13.12,3.73,22.53.01,36.03.01h379.34c16.16-.48,29.87,14.33,30.55,33.06,0,.04,0,.08,0,.13v478.28c0,11.56-2.35,19.34-7.42,24.5-5.06,5.14-12.7,7.54-24.03,7.54ZM36.03,7.01c-11.18,0-18.77,2.82-23.21,8.61-3.97,5.17-5.81,12.94-5.81,24.45v468.03c0,17.8,13.01,28.42,34.81,28.42h372.65c9.33,0,15.38-1.73,19.04-5.45,3.7-3.76,5.42-9.98,5.41-19.58V33.26c-.49-12.78-9.29-26.27-22.74-26.27-.22,0-.43,0-.65.01-.04,0-.08,0-.11,0H36.03Z"/><path d="m371.03,490.06H85.35c-9.49,0-17.51-7.86-17.51-17.17v-30.43c0-1.93,1.57-3.5,3.5-3.5s3.5,1.57,3.5,3.5v30.43c0,5.42,4.91,10.17,10.51,10.17h285.69c7.56,0,12.97-1.74,16.55-5.32,3.92-3.92,5.83-10.35,5.83-19.65v-237.44c0-1.93,1.57-3.5,3.5-3.5s3.5,1.57,3.5,3.5v237.44c0,11.26-2.58,19.3-7.88,24.6-4.89,4.88-12.12,7.36-21.5,7.36Z"/></g></svg>
