<?xml version="1.0" encoding="utf-8"?>
<!-- Generator: Adobe Illustrator 28.0.0, SVG Export Plug-In . SVG Version: 6.00 Build 0)  -->
<svg version="1.1" id="_x31_1" xmlns="http://www.w3.org/2000/svg" xmlns:xlink="http://www.w3.org/1999/xlink" x="0px" y="0px"
	 viewBox="0 0 874.3 653.3" style="enable-background:new 0 0 874.3 653.3;" xml:space="preserve">
<style type="text/css">
	.st0{fill:#333333;}
</style>
<g>
	<path class="st0" d="M5.7,472.4h193.7c2.6,0,4.8-2.1,4.8-4.8c0-1.2-0.5-2.3-1.2-3.2l-0.3-0.3l-96.4-124.7l-0.9-1
		c-0.9-1-2.1-1.5-3.5-1.5c-1.2,0-2.3,0.5-3.1,1.2l-0.6,0.7l-0.9,1l-94,123.4L1.8,465c-0.5,0.8-0.8,1.7-0.8,2.7
		C1,470.3,3.1,472.4,5.7,472.4L5.7,472.4z"/>
	<path class="st0" d="M198.8,490H4.8c-2.6,0-4.8,2.1-4.8,4.8v151.9c0,2.6,2.1,4.8,4.8,4.8h62.5V556c0-2.6,2.1-4.8,4.8-4.8h58
		c2.6,0,4.8,2.1,4.8,4.8v95.5H199c2.6,0,4.8-2.1,4.8-4.8v-152C203.6,492.1,201.4,490,198.8,490L198.8,490z"/>
	<path class="st0" d="M869.6,450.2H677.5c-2.6,0-4.7,2-4.7,4.6v194c0,2.5,2.1,4.6,4.7,4.6h192.1c2.6,0,4.7-2,4.7-4.6v-194
		C874.3,452.3,872.2,450.2,869.6,450.2 M764.5,576.9c0,2.5-2.1,4.6-4.7,4.6h-57.4c-2.6,0-4.7-2-4.7-4.6V542c0-2.5,2.1-4.6,4.7-4.6
		h57.4c2.6,0,4.7,2,4.7,4.6V576.9z M764.5,512.4c0,2.5-2.1,4.6-4.7,4.6h-57.4c-2.6,0-4.7-2-4.7-4.6v-34.9c0-2.5,2.1-4.6,4.7-4.6
		h57.4c2.6,0,4.7,2,4.7,4.6V512.4z M852.2,576.9c0,2.5-2.1,4.6-4.7,4.6h-57.4c-2.6,0-4.7-2-4.7-4.6V542c0-2.5,2.1-4.6,4.7-4.6h57.4
		c2.6,0,4.7,2,4.7,4.6V576.9z M852.2,512.4c0,2.5-2.1,4.6-4.7,4.6h-57.4c-2.6,0-4.7-2-4.7-4.6v-34.9c0-2.5,2.1-4.6,4.7-4.6h57.4
		c2.6,0,4.7,2,4.7,4.6V512.4z"/>
	<path class="st0" d="M423.1,0h-188c-2.5,0-4.6,2-4.6,4.6V647c0,2.5,2.1,4.6,4.6,4.6h188c2.5,0,4.6-2.1,4.6-4.6V4.6
		C427.7,2.1,425.6,0,423.1,0 M311.2,578.5c0,1.4-1.1,2.5-2.5,2.5h-43c-1.4,0-2.5-1.1-2.5-2.5v-48c0-1.4,1.1-2.5,2.5-2.5h43
		c1.4,0,2.5,1.1,2.5,2.5V578.5z M311.2,468.3c0,1.4-1.1,2.5-2.5,2.5h-43c-1.4,0-2.5-1.1-2.5-2.5v-48c0-1.4,1.1-2.5,2.5-2.5h43
		c1.4,0,2.5,1.1,2.5,2.5V468.3z M311.2,358.2c0,1.4-1.1,2.5-2.5,2.5h-43c-1.4,0-2.5-1.1-2.5-2.5v-48c0-1.4,1.1-2.5,2.5-2.5h43
		c1.4,0,2.5,1.1,2.5,2.5V358.2z M311.2,248c0,1.4-1.1,2.5-2.5,2.5h-43c-1.4,0-2.5-1.1-2.5-2.5v-48c0-1.4,1.1-2.4,2.5-2.4h43
		c1.4,0,2.5,1.1,2.5,2.4V248z M311.2,137.9c0,1.3-1.1,2.4-2.5,2.4h-43c-1.4,0-2.5-1.1-2.5-2.4v-48c0-1.4,1.1-2.5,2.5-2.5h43
		c1.4,0,2.5,1.1,2.5,2.5V137.9z M395.6,578.5c0,1.4-1.1,2.5-2.5,2.5h-43c-1.4,0-2.5-1.1-2.5-2.5v-48c0-1.4,1.1-2.5,2.5-2.5h43
		c1.4,0,2.5,1.1,2.5,2.5V578.5z M395.6,468.3c0,1.4-1.1,2.5-2.5,2.5h-43c-1.4,0-2.5-1.1-2.5-2.5v-48c0-1.4,1.1-2.5,2.5-2.5h43
		c1.4,0,2.5,1.1,2.5,2.5V468.3z M395.6,358.2c0,1.4-1.1,2.5-2.5,2.5h-43c-1.4,0-2.5-1.1-2.5-2.5v-48c0-1.4,1.1-2.5,2.5-2.5h43
		c1.4,0,2.5,1.1,2.5,2.5V358.2z M395.6,248c0,1.4-1.1,2.5-2.5,2.5h-43c-1.4,0-2.5-1.1-2.5-2.5v-48c0-1.4,1.1-2.4,2.5-2.4h43
		c1.4,0,2.5,1.1,2.5,2.4V248z M395.6,137.9c0,1.3-1.1,2.4-2.5,2.4h-43c-1.4,0-2.5-1.1-2.5-2.4v-48c0-1.4,1.1-2.5,2.5-2.5h43
		c1.4,0,2.5,1.1,2.5,2.5V137.9z"/>
	<path class="st0" d="M874.1,430.7c0,2.2-1.7,3.9-3.9,3.9H676.9c-2.1,0-3.9-1.7-3.9-3.9V392c0-2.1,1.7-3.9,3.9-3.9h193.3
		c2.1,0,3.9,1.7,3.9,3.9L874.1,430.7L874.1,430.7z"/>
	<path class="st0" d="M650.1,121.3c-0.6-2.1-2.5-3.6-4.7-3.6c-1,0-1.9,0.4-2.7,0.9c-0.1,0.1-0.2,0.1-0.3,0.2l-1.6,2L456,355.2
		l-0.9,1.1c-1,0.9-1.6,2.2-1.6,3.7v288c0,2.5,2.1,4.6,4.6,4.6H646c2.5,0,4.6-2,4.6-4.6V123.2C650.6,122.5,650.4,121.9,650.1,121.3
		L650.1,121.3z M572.3,248.6l1.3-1.7c12.6-16.2,34-42.4,44.3-55.2l1.4-1.6c1-1.2,2.5-1.9,4.1-1.9c2.6,0,4.6,1.9,5.1,4.3v59.3
		c0,2.9-2.3,5.2-5.1,5.3c-0.1,0-0.2,0-0.2,0H623h-46.2c-0.1,0-0.2,0-0.2,0h-0.2c-2.8-0.1-5.1-2.4-5.1-5.3
		C571.3,250.6,571.7,249.5,572.3,248.6L572.3,248.6z M543.1,576.8c0,2.5-2,4.6-4.6,4.6h-56c-2.5,0-4.6-2-4.6-4.6v-35.1
		c0-2.5,2-4.6,4.6-4.6h56c2.5,0,4.6,2,4.6,4.6V576.8z M543.1,512c0,2.5-2,4.6-4.6,4.6h-56c-2.5,0-4.6-2-4.6-4.6v-35
		c0-2.6,2-4.6,4.6-4.6h56c2.5,0,4.6,2,4.6,4.6V512z M543.1,447.2c0,2.5-2,4.6-4.6,4.6h-56c-2.5,0-4.6-2.1-4.6-4.6v-35.1
		c0-2.5,2-4.6,4.6-4.6h56c2.5,0,4.6,2,4.6,4.6V447.2z M543.3,305.2v77.2c0,2.5-2.1,4.6-4.6,4.6h-56c-2.6,0-4.6-2-4.6-4.6v-9.7
		c0-0.6,0.1-1.2,0.4-1.7c0.1-0.2,0.1-0.3,0.3-0.5c0.1-0.2,0.3-0.4,0.4-0.6s0.4-0.5,0.5-0.8c7.2-10.2,39.5-50.1,53-66.7l1.4-1.6
		c1-1.2,2.5-2,4.1-2c2.6,0,4.6,1.9,5.1,4.3L543.3,305.2L543.3,305.2z M628.8,576.8c0,2.5-2.1,4.6-4.6,4.6h-56c-2.6,0-4.6-2-4.6-4.6
		v-35.1c0-2.5,2.1-4.6,4.6-4.6h56c2.5,0,4.6,2,4.6,4.6V576.8z M628.8,512c0,2.5-2.1,4.6-4.6,4.6h-56c-2.6,0-4.6-2-4.6-4.6v-35
		c0-2.6,2.1-4.6,4.6-4.6h56c2.5,0,4.6,2,4.6,4.6V512z M628.8,447.2c0,2.5-2.1,4.6-4.6,4.6h-56c-2.6,0-4.6-2.1-4.6-4.6v-35.1
		c0-2.5,2.1-4.6,4.6-4.6h56c2.5,0,4.6,2,4.6,4.6V447.2z M628.8,382.4c0,2.5-2.1,4.6-4.6,4.6h-56c-2.6,0-4.6-2-4.6-4.6v-35.1
		c0-2.5,2.1-4.6,4.6-4.6h56c2.5,0,4.6,2,4.6,4.6V382.4z M628.8,317.6c0,2.5-2.1,4.6-4.6,4.6h-56c-2.6,0-4.6-2-4.6-4.6v-35.1
		c0-2.6,2.1-4.6,4.6-4.6h56c2.5,0,4.6,2,4.6,4.6V317.6z"/>
</g>
</svg>
