<?xml version="1.0" encoding="UTF-8"?><svg xmlns="http://www.w3.org/2000/svg" viewBox="0 0 220.48 103.69" fill="#fff" stroke-width="0"><g><path d="m1.18,84.11c-.77,0-1.04.02-1.09.02-.08,0-.09,0-.09-.09v-.89c0-.08,0-.09.09-.09.05,0,.32.02,1.09.02h5.17c.77,0,1.04-.02,1.09-.02.09,0,.09,0,.09.09v.89c0,.08,0,.09-.09.09-.05,0-.32-.02-1.09-.02H1.18Z"/><path d="m15.22,83.81c.09.05.09.08.09.13,0,.06-.04.1-.1.14-.04.03-.14.14-.19.23-.27.47-.77,1.01-1.3,1.41-.09.07-.15.11-.2.11-.06,0-.1-.06-.2-.2-.13-.18-.27-.31-.42-.44.59-.34,1.05-.81,1.3-1.19.15-.21.22-.38.28-.52.28.11.45.19.73.34Zm-1.09-.62c-.78,0-1.04.02-1.1.02-.09,0-.09,0-.09-.1v-.68c0-.09,0-.09.09-.09.06,0,.32,0,1.1,0h.1v-.96c0-.58-.02-.82-.07-1.12.32,0,.64.03.93.06.08,0,.13.05.13.1,0,.06-.03.11-.05.17-.04.12-.05.3-.05.73v1.01h1.19v-1.71c0-.57,0-.81-.07-1.11.31,0,.64.03.93.06.07,0,.12.04.12.09,0,.06-.03.12-.04.18-.04.13-.06.29-.06.71v.04h1.12c.84,0,1.14-.02,1.19-.02.08,0,.09,0,.09.1v.67c0,.08,0,.09-.09.09-.05,0-.35-.02-1.19-.02h-1.12v.91h1.98c.78,0,1.05,0,1.1,0,.09,0,.09,0,.09.09v.68c0,.09,0,.1-.09.1-.05,0-.32-.02-1.1-.02h-1.98v.42c0,.43.03.82.03,1.16,0,.4-.04.62-.27.81-.2.17-.4.23-1.18.23q-.27,0-.33-.29c-.06-.23-.15-.49-.26-.67.31.04.51.06.73.06.29,0,.4-.11.4-.34v-1.37h-2.18Zm4.68,2.16c.06.06.1.11.1.18,0,.06-.05.11-.12.13-.09.03-.16.07-.29.2-.95.98-2.27,1.76-4.54,1.98q-.26.03-.35-.25c-.09-.24-.21-.46-.34-.63,2.32-.08,3.79-.81,4.54-1.7.14-.16.22-.28.31-.44.24.17.51.35.69.52Zm-.09-1.81c.09-.05.1-.06.15.02.46.6,1.05,1.08,1.7,1.41-.15.17-.29.33-.41.52-.09.14-.12.2-.18.2-.04,0-.09-.05-.2-.11-.57-.39-1.06-.89-1.57-1.57-.05-.07-.04-.09.06-.17l.45-.3Z"/><path d="m30.83,86.33c0,.3,0,.38.08.45.07.08.27.13.62.13.41,0,.6-.07.72-.2.14-.16.21-.48.21-1.25.15.12.39.21.63.28q.21.05.21.28c-.04.75-.18,1.13-.42,1.39-.24.27-.57.39-1.42.39-.79,0-1.15-.1-1.32-.28-.14-.14-.21-.34-.21-.89v-2.53h-1.04c-.03.98-.22,1.69-.61,2.31-.36.61-.97,1.07-1.83,1.43-.09.04-.15.06-.2.06-.07,0-.1-.06-.18-.22-.13-.23-.28-.42-.46-.6.98-.27,1.51-.63,1.88-1.16.28-.41.48-.96.5-1.83h-1.1c-.77,0-1.03.02-1.08.02-.09,0-.1,0-.1-.1v-.72c0-.08,0-.09.1-.09.05,0,.31.02,1.08.02h2.11v-1.31h-1.64c-.18.29-.38.57-.61.85-.09.1-.14.16-.18.16s-.09-.06-.19-.16c-.15-.15-.32-.29-.51-.4.61-.62,1-1.29,1.26-1.93.12-.27.17-.48.21-.73.31.07.57.17.8.27.08.04.14.08.14.14s-.03.09-.08.14c-.06.06-.1.14-.15.27-.08.18-.15.37-.22.53h1.17v-.51c0-.51,0-.74-.06-1.02.33.02.62.04.92.07.08,0,.14.05.14.1,0,.06-.03.11-.05.18-.04.08-.05.25-.05.61v.56h1.36c.83,0,1.12-.02,1.17-.02.08,0,.09,0,.09.11v.69c0,.09,0,.1-.09.1-.05,0-.34-.02-1.17-.02h-1.36v1.31h2.22c.76,0,1.03-.02,1.08-.02.09,0,.09,0,.09.09v.72c0,.09,0,.1-.09.1-.05,0-.32-.02-1.08-.02h-1.29v2.22Z"/><path d="m42.8,81.55c-.2,1.56-.56,2.99-1.07,3.96-.37.69-.81,1.06-1.46,1.06-.75,0-1.52-.86-1.52-2.36,0-.88.35-1.73.97-2.39.72-.77,1.63-1.18,2.79-1.18,2.06,0,3.27,1.36,3.27,3.19,0,1.71-.9,2.78-2.64,3.34-.18.06-.26.02-.37-.17-.09-.16-.27-.37-.6-.58,1.45-.37,2.59-1.01,2.59-2.75,0-1.09-.77-2.13-1.92-2.13h-.03Zm-2.46.89c-.41.5-.67,1.11-.67,1.7,0,.85.32,1.31.58,1.31.22,0,.41-.12.64-.56.38-.74.76-2.07.91-3.29-.6.13-1.08.39-1.47.84Z"/><path d="m51.61,85.59c.06-.06.1-.07.13-.07s.06,0,.11.06c.63.42,1.2.97,1.71,1.68.05.07.06.1.06.14,0,.05-.02.08-.09.15l-.52.48c-.06.06-.09.08-.12.08-.04,0-.08-.02-.12-.09-.46-.71-1.04-1.33-1.62-1.75-.05-.04-.08-.06-.08-.09s.02-.06.06-.11l.48-.46Z"/><path d="m62.3,82.99c.3.61.69,1.05,1.12,1.47-.12.18-.25.44-.33.67-.03.1-.07.16-.11.16-.04,0-.09-.05-.15-.13-.29-.38-.5-.73-.69-1.18,0,2.2.04,3.68.04,3.85,0,.08,0,.09-.09.09h-.73c-.09,0-.09,0-.09-.09,0-.17.04-1.66.05-3.77-.3.89-.7,1.63-1.14,2.28-.06.09-.1.14-.15.14-.03,0-.07-.05-.11-.16-.08-.26-.21-.56-.33-.73.59-.67,1.09-1.43,1.53-2.59h-.25c-.72,0-.96.02-1.01.02-.09,0-.09,0-.09-.1v-.66c0-.09,0-.1.09-.1.05,0,.29.02,1.01.02h.44v-1.09c-.27.06-.57.13-.86.18q-.27.05-.38-.22c-.08-.2-.16-.37-.27-.51,1.04-.15,2.04-.47,2.57-.71.21-.09.31-.15.45-.25.24.21.42.39.57.57.05.06.09.11.09.17s-.06.11-.16.13c-.11.02-.22.05-.37.1-.25.1-.51.19-.78.28v1.34h.22c.73,0,.96-.02,1.01-.02.09,0,.09,0,.09.1v.66c0,.09,0,.1-.09.1-.05,0-.28-.02-1.01-.02h-.09Zm3.77.77c.12-.06.13-.06.17.04.58,1.13,1.01,2.26,1.34,3.42.03.09.02.11-.09.17l-.58.28c-.13.06-.14.06-.16-.04l-.22-.78c-.99.22-1.98.42-3.16.62-.14.03-.24.06-.3.1-.05.04-.09.06-.15.06-.06,0-.1-.04-.13-.13-.09-.28-.16-.6-.22-.97.26,0,.51,0,.77-.03.54-1.97.85-3.66,1.13-5.54.06-.4.1-.78.09-1.15.35.05.64.11.93.19.09.03.16.07.16.14,0,.07-.03.11-.06.17-.07.11-.11.24-.15.5-.34,1.97-.69,3.77-1.17,5.58.65-.09,1.31-.19,2-.34-.22-.63-.47-1.24-.76-1.86-.04-.09-.03-.12.07-.17l.51-.26Z"/><path d="m74.19,82.03c.09.05.14.1.14.17,0,.05-.02.09-.04.14-.08.15-.14.31-.17.49-.09.47-.17,1.15-.21,1.67.79-.85,1.82-1.45,2.86-1.45,1.25,0,2,.78,2,1.97,0,1-.56,1.66-1.29,2.06-.57.31-1.46.53-2.2.63-.19.03-.27.02-.34-.12-.16-.31-.32-.56-.58-.78.96-.06,1.78-.24,2.36-.51.69-.32,1.01-.8,1.01-1.39,0-.5-.29-.95-1.03-.95s-1.66.52-2.47,1.4c-.15.17-.27.32-.37.51-.05.09-.08.09-.2.06-.2-.07-.4-.16-.58-.25-.09-.04-.12-.06-.12-.18.05-1.07.16-2.15.27-2.97.03-.28.08-.51.08-.83.33.1.69.21.89.33Zm.21-2.32s.09-.07.16-.05c.63.27,1.17.62,1.68,1.09.04.04.06.06.06.1,0,.03-.02.06-.04.11-.11.19-.29.46-.44.64-.03.05-.07.07-.09.07-.03,0-.06-.02-.1-.06-.48-.45-1.05-.87-1.73-1.19.21-.33.37-.57.51-.72Z"/><path d="m86.04,80.1c.15.04.21.08.21.17,0,.1-.05.21-.09.3-.04.13-.08.41-.12,1.12-.09,1.41-.13,2.35-.13,3.55,0,.93.1,1.14.79,1.14.76,0,1.96-.5,3-1.69.03.35.11.65.2.87.04.1.07.17.07.22,0,.08-.03.16-.17.28-.93.91-2.13,1.38-3.25,1.38s-1.61-.47-1.61-1.87c0-1.54.08-2.87.12-3.97.02-.54.04-1.13-.08-1.68.39.05.81.09,1.07.17Z"/><path d="m97.4,80.65c-.12-.27-.21-.46-.43-.74.42-.08.79-.15,1.02-.15s.29.06.29.19c0,.08,0,.17,0,.26.03.11.06.24.14.46.1.28.18.5.29.74.78-.19,1.35-.39,1.79-.57.09-.05.11-.04.16.06.09.17.16.5.21.71.03.09,0,.14-.07.16-.41.17-.91.33-1.71.53.35.68.78,1.3,1.31,1.94.07.07.15.14.22.2.05.05.09.07.09.12,0,.06-.03.11-.05.16-.06.16-.23.45-.33.6-.07.1-.11.14-.17.14-.04,0-.07-.02-.14-.07-.11-.08-.19-.15-.35-.24-.56-.31-1.18-.47-1.82-.47-.89,0-1.43.29-1.43.86,0,.69.78.97,2.13.97.42,0,.93-.05,1.37-.13-.03.37-.12.78-.18.98-.03.09-.06.11-.16.13-.15.03-.59.06-.95.06-2.02,0-3.11-.69-3.11-1.9,0-1.05.84-1.78,2.26-1.78.69,0,1.17.11,1.53.25-.42-.42-.76-.93-1.11-1.63-.54.1-1.04.17-1.66.23-.23.02-.63.05-.84.05-.08,0-.11-.06-.14-.17-.08-.29-.13-.48-.2-.83.44.02.79,0,1.07,0,.36-.02.79-.07,1.35-.17-.15-.33-.27-.6-.4-.95Z"/><path d="m106.95,83.35c.28-.24.9-.81,1.54-1.42.28-.28.5-.39.75-.39.29,0,.45.08.75.34.64.55,1.01.92,1.85,1.58.76.59,1.36.95,2.02,1.35.09.04.13.11.09.19-.09.28-.26.62-.42.86-.04.06-.08.09-.11.09s-.07,0-.12-.05c-.41-.26-1.35-.99-1.85-1.41-.62-.5-1.23-1.08-1.8-1.63-.16-.17-.27-.21-.38-.21-.09,0-.18.08-.29.19-.42.45-1.04,1.08-1.44,1.52-.17.19-.24.29-.31.4-.04.07-.09.11-.15.11s-.11-.03-.16-.08c-.18-.19-.5-.63-.7-.96.26-.11.47-.26.75-.5Z"/><path d="m121.45,86.77c0,.73-.56,1.32-1.24,1.32s-1.24-.59-1.24-1.32.56-1.32,1.24-1.32,1.24.59,1.24,1.32Zm-1.96,0c0,.43.31.76.71.76s.71-.33.71-.76-.31-.76-.71-.76-.71.33-.71.76Z"/><polygon points="26.14 65.47 28.49 63.12 28.49 41.04 26.14 41.04 26.14 65.47"/><polygon points="126.26 54.19 137.56 54.19 137.56 51.84 126.26 51.84 126.26 43.4 146.93 43.4 146.93 41.04 123.9 41.04 123.9 65.12 144.86 65.11 147.22 62.75 126.26 62.76 126.26 54.19"/><polygon points=".06 65.11 2.42 65.11 2.42 45.07 16.12 58.77 16.12 55.42 .06 39.37 .06 65.11"/><path d="m56.54,41.04c-6.6,0-11.97,5.37-11.97,11.97s5.37,11.97,11.97,11.97,11.97-5.37,11.97-11.97-5.37-11.97-11.97-11.97Zm0,21.59c-5.3,0-9.62-4.31-9.62-9.62s4.31-9.62,9.62-9.62,9.62,4.31,9.62,9.62-4.31,9.62-9.62,9.62Z"/><path d="m95.44,41.04h-10.86v24.42l2.39-2.39-.03-19.67h8.5c5.3,0,9.62,4.31,9.62,9.61s-4.31,9.62-9.62,9.62h-.26v2.36h.26c6.6,0,11.97-5.37,11.97-11.97s-5.37-11.97-11.97-11.97Z"/><path d="m188.67,54.15l2.36-2.36v-8.39h14.14v21.02c0,20.35-16.56,36.91-36.91,36.91h-13.22v2.36h13.22c21.65,0,39.27-17.61,39.27-39.27v-23.38h-18.85v13.11Z"/><path d="m207.26,0c-22.09,0-40.06,17.97-40.06,40.06v25.42l2.36-2.36v-23.06c0-20.79,16.92-37.7,37.71-37.7h13.22V0h-13.22Z"/></g></svg>
