<?xml version="1.0" encoding="UTF-8"?><svg id="_レイヤー_2" xmlns="http://www.w3.org/2000/svg" viewBox="0 0 59.52 59.51"><defs><style>.cls-1{fill:#fabd00;}.cls-1,.cls-2,.cls-3,.cls-4,.cls-5,.cls-6,.cls-7,.cls-8,.cls-9,.cls-10,.cls-11,.cls-12,.cls-13,.cls-14,.cls-15,.cls-16,.cls-17{stroke-width:0px;}.cls-2{fill:#28a838;}.cls-3{fill:#970b31;}.cls-4{fill:#427935;}.cls-5{fill:#c60f28;}.cls-6{fill:#e5001e;}.cls-7{fill:#d39200;}.cls-8{fill:#d7a600;}.cls-9{fill:#dc007a;}.cls-10{fill:#f5a200;}.cls-11{fill:#e83819;}.cls-12{fill:#ed6a02;}.cls-13{fill:#003067;}.cls-14{fill:#00a6d9;}.cls-15{fill:#004c88;}.cls-16{fill:#00973b;}.cls-17{fill:#0075ba;}</style></defs><g id="_レイヤー_1-2"><path class="cls-2" d="m15.29,21.26c.74-1.26,1.64-2.41,2.67-3.43l-8.75-9.59c-2.2,2.1-4.08,4.54-5.55,7.23l11.63,5.79Z"/><path class="cls-8" d="m36.73,14.49c1.32.61,2.56,1.38,3.67,2.3l8.77-9.58c-2.31-1.99-4.93-3.64-7.77-4.85l-4.67,12.13Z"/><path class="cls-5" d="m56.82,17.37l-11.63,5.8c.56,1.3.95,2.67,1.16,4.11l12.93-1.22c-.38-3.06-1.23-5.98-2.47-8.68"/><path class="cls-16" d="m44.36,21.49l11.62-5.79c-1.44-2.68-3.28-5.11-5.43-7.21l-8.77,9.57c1,1.03,1.87,2.18,2.58,3.43"/><path class="cls-4" d="m12.98,29.75c0-.26,0-.52.02-.78L.07,27.81c-.04.64-.07,1.29-.07,1.94,0,2.48.31,4.89.88,7.19l12.49-3.58c-.26-1.16-.39-2.37-.39-3.61"/><path class="cls-1" d="m42.73,40.38c-.92,1.12-1.98,2.12-3.15,2.97l6.83,11.06c2.53-1.72,4.79-3.82,6.69-6.21l-10.36-7.81Z"/><path class="cls-11" d="m46.54,29.75c0,1.22-.13,2.42-.38,3.57l12.49,3.59c.57-2.29.87-4.69.87-7.16,0-.61-.02-1.22-.06-1.83l-12.93,1.22c0,.2.01.4.01.61"/><path class="cls-10" d="m17,40.63l-10.34,7.86c1.92,2.37,4.2,4.43,6.75,6.12l6.83-11.05c-1.2-.83-2.29-1.82-3.24-2.93"/><path class="cls-17" d="m13.19,27.1c.23-1.46.65-2.86,1.24-4.17l-11.62-5.79c-1.28,2.73-2.16,5.69-2.56,8.8l12.95,1.16Z"/><path class="cls-3" d="m44.82,55.41l-6.82-11.04c-1.24.7-2.57,1.25-3.98,1.62l2.41,12.78c2.99-.69,5.82-1.83,8.39-3.35"/><path class="cls-14" d="m45.66,35.13c-.45,1.33-1.06,2.58-1.82,3.74l10.37,7.82c1.68-2.42,3.02-5.1,3.93-7.98l-12.48-3.59Z"/><path class="cls-12" d="m32.18,46.35c-.79.11-1.6.18-2.42.18-.66,0-1.31-.04-1.95-.12l-2.41,12.78c1.42.21,2.88.32,4.36.32,1.64,0,3.25-.14,4.82-.39l-2.4-12.76Z"/><path class="cls-6" d="m30.83,13c1.44.09,2.83.37,4.15.8l4.67-12.13C36.88.7,33.91.12,30.83.01v12.99Z"/><path class="cls-9" d="m25.96,46.1c-1.45-.34-2.84-.87-4.12-1.56l-6.83,11.05c2.63,1.5,5.5,2.62,8.55,3.27l2.4-12.76Z"/><path class="cls-13" d="m24.72,13.74c1.35-.43,2.77-.69,4.24-.75V0c-3.12.08-6.12.65-8.94,1.63l4.7,12.12Z"/><path class="cls-7" d="m15.86,39.14c-.82-1.22-1.5-2.55-1.98-3.97l-12.48,3.58c.95,2.98,2.35,5.75,4.12,8.24l10.34-7.86Z"/><path class="cls-15" d="m19.36,16.59c1.1-.87,2.3-1.6,3.6-2.18l-4.69-12.11c-2.8,1.17-5.37,2.76-7.66,4.69l8.75,9.6Z"/></g></svg>